<svg xmlns="http://www.w3.org/2000/svg" viewBox="0 0 512 512">
  <defs>
    <linearGradient id="g" x1="0" x2="1" y1="0" y2="1">
      <stop offset="0" stop-color="#1e4f96" />
      <stop offset="1" stop-color="#7c1f32" />
    </linearGradient>
  </defs>
  <rect width="512" height="512" rx="112" fill="#f4efe6" />
  <path
    d="M256 92c-18 0-34 10-42 26L118 340c-8 18 6 38 26 38h40c12 0 23-7 28-18l15-35h58l15 35c5 11 16 18 28 18h40c20 0 34-20 26-38L298 118c-8-16-24-26-42-26Zm-11 172 11-26 11 26h-22Z"
    fill="url(#g)"
  />
</svg>

